<mxfile host="app.diagrams.net" modified="2023-11-15T16:15:57.107Z" agent="Mozilla/5.0 (Windows NT 10.0; Win64; x64) AppleWebKit/537.36 (KHTML, like Gecko) Chrome/119.0.0.0 Safari/537.36" version="21.6.9" etag="Iswdt1twLHv33evGuk5k" type="github">
  <diagram name="Page-1" id="N3X8TfBRym2jQBIyG8qC">
    <mxGraphModel>
      <root>
        <mxCell id="0" />
        <mxCell id="1" parent="0" />
      </root>
    </mxGraphModel>
  </diagram>
</mxfile>
